<svg viewBox="0 0 300 102" version="1.1" xmlns="http://www.w3.org/2000/svg">
    <path fill="#000000" fill-rule="nonzero" d="M44.4930215,41.1501684 C47.0296021,41.0545608 49.1713377,41.407114 50.9182281,42.2078282 C52.6651185,43.0085424 54.0410939,44.3052213 55.0461541,46.0978651 C56.6494645,44.8549654 58.7313751,43.7196244 61.2918857,42.691842 C63.8523963,41.6640596 66.460767,41.1501684 69.1169977,41.1501684 C71.9885984,41.1501684 74.3875815,41.6640596 76.3139469,42.691842 C78.2403124,43.7196244 79.7060253,45.398734 80.7110855,47.7291708 C81.7161458,50.0596076 82.2186759,53.1608812 82.2186759,57.0329917 L82.2186759,57.0329917 L82.2186759,82.7395024 L71.0194331,82.7395024 L71.0194331,59.4709871 L71.0173592,59.0236229 C70.9980025,56.967527 70.8431488,55.353882 70.552798,54.1826882 C70.2417079,52.9278376 69.6853353,52.0195648 68.8836801,51.4578697 C68.0820249,50.8961747 66.9154371,50.6153272 65.3839167,50.6153272 C63.9959764,50.6153272 62.5302635,50.9021502 60.9867781,51.4757962 C59.4432927,52.0494422 58.1331249,52.7664996 57.0562746,53.6269686 C57.1519947,54.6786529 57.1998547,55.9335035 57.1998547,57.3915204 L57.1998547,57.3915204 L57.1998547,82.7395024 L46.0006119,82.7395024 L46.0006119,59.50684 L45.9984582,59.0640171 C45.978357,57.0279988 45.8175473,55.4188156 45.5160293,54.2364675 C45.1929742,52.9696659 44.630619,52.0494422 43.8289638,51.4757962 C43.0273086,50.9021502 41.8846509,50.6153272 40.4009905,50.6153272 C39.2284202,50.6153272 37.8285148,50.8782483 36.2012744,51.4040904 C34.574034,51.9299326 33.1741287,52.7067448 32.0015584,53.7345272 L32.0015584,53.7345272 L32.0015584,82.7395024 L20.8023156,82.7395024 L20.8023156,41.8672259 L30.9606031,41.8672259 L31.1759732,46.2412765 L31.564234,45.9562568 C33.1461631,44.8233908 35.0747234,43.7770809 37.3499147,42.8173271 C39.8147053,41.7775937 42.1957409,41.2218742 44.4930215,41.1501684 Z M113.834073,41.1501684 C116.370654,41.0545608 118.51239,41.407114 120.25928,42.2078282 C122.006171,43.0085424 123.382146,44.3052213 124.387206,46.0978651 C125.990517,44.8549654 128.072427,43.7196244 130.632938,42.691842 C133.193448,41.6640596 135.801819,41.1501684 138.45805,41.1501684 C141.32965,41.1501684 143.728633,41.6640596 145.654999,42.691842 C147.581364,43.7196244 149.047077,45.398734 150.052138,47.7291708 C151.057198,50.0596076 151.559728,53.1608812 151.559728,57.0329917 L151.559728,57.0329917 L151.559728,82.7395024 L140.360485,82.7395024 L140.360485,59.4709871 L140.358411,59.0236229 C140.339054,56.967527 140.184201,55.353882 139.89385,54.1826882 C139.58276,52.9278376 139.026387,52.0195648 138.224732,51.4578697 C137.423077,50.8961747 136.256489,50.6153272 134.724969,50.6153272 C133.337028,50.6153272 131.871315,50.9021502 130.32783,51.4757962 C128.784345,52.0494422 127.474177,52.7664996 126.397327,53.6269686 C126.493047,54.6786529 126.540907,55.9335035 126.540907,57.3915204 L126.540907,57.3915204 L126.540907,82.7395024 L115.341664,82.7395024 L115.341664,59.50684 L115.33951,59.0640171 C115.319409,57.0279988 115.158599,55.4188156 114.857081,54.2364675 C114.534026,52.9696659 113.971671,52.0494422 113.170016,51.4757962 C112.368361,50.9021502 111.225703,50.6153272 109.742042,50.6153272 C108.569472,50.6153272 107.169567,50.8782483 105.542326,51.4040904 C103.915086,51.9299326 102.515181,52.7067448 101.34261,53.7345272 L101.34261,53.7345272 L101.34261,82.7395024 L90.1433676,82.7395024 L90.1433676,41.8672259 L100.301655,41.8672259 L100.517025,46.2412765 L100.905286,45.9562568 C102.487215,44.8233908 104.415775,43.7770809 106.690967,42.8173271 C109.155757,41.7775937 111.536793,41.2218742 113.834073,41.1501684 Z M220.611918,41.1348712 C222.199486,41.1348712 223.28636,41.3023906 223.872539,41.6374293 L223.872539,41.6374293 L223.872539,52.4424284 L223.585047,52.292359 C223.094868,52.0513837 222.549565,51.8561106 221.949139,51.7065398 C221.228627,51.5270547 220.196707,51.4373122 218.85338,51.4373122 C215.336305,51.4373122 212.23444,52.6697761 209.547785,55.134704 L209.547785,55.134704 L209.547785,82.7395024 L198.117291,82.7395024 L198.117291,41.8169143 L208.265518,41.8169143 L208.778425,47.4168474 L208.952372,47.1308581 C209.556919,46.1815157 210.408736,45.2717293 211.507822,44.4014988 C212.716817,43.4442453 214.121204,42.660494 215.720985,42.0502449 C217.320766,41.4399958 218.951077,41.1348712 220.611918,41.1348712 Z M177.509194,40.7634013 C180.463087,40.7634013 183.13112,41.2958838 185.513292,42.3608487 C187.895463,43.4258137 189.807156,45.1415906 191.24837,47.5081794 C192.689584,49.8747682 193.434013,52.9158348 193.481656,56.6313792 L193.475996,57.8203913 C193.450841,60.3785791 193.341832,62.3763587 193.148972,63.8137301 L193.088598,64.2281293 L169.004841,64.2281293 L169.029079,64.5589784 C169.290443,67.7297341 170.336475,70.1043693 172.167174,71.682884 C174.061,73.3158303 176.627791,74.1323034 179.867544,74.1323034 C181.415956,74.1323034 183.291916,73.9252269 185.495425,73.5110739 C187.58296,73.1187184 189.141336,72.6573319 190.170553,72.1269144 L190.337189,72.0378723 L192.159551,78.3211656 L191.963539,78.4749694 C190.560961,79.543895 188.518076,80.4510955 185.834885,81.196571 C183.023922,81.9775453 180.093851,82.3680325 177.044671,82.3680325 C172.947335,82.3680325 169.457453,81.5397264 166.575025,79.8831142 C163.692597,78.2265021 161.51291,75.8303309 160.035964,72.6946007 C158.559017,69.5588706 157.820544,65.8019108 157.820544,61.4237215 C157.820544,57.4478524 158.59475,53.8979691 160.143161,50.7740719 C161.691573,47.6501747 163.948681,45.2007553 166.914485,43.4258137 C169.880289,41.6508721 173.411859,40.7634013 177.509194,40.7634013 Z M12.8776239,42.1254577 L12.8776239,81.7489159 L0.990586457,81.7489159 L0.990586457,42.1254577 L12.8776239,42.1254577 Z M176.413674,48.6880929 C174.238269,48.6880929 172.50622,49.4391015 171.217529,50.9411185 C169.974862,52.3894921 169.155443,54.8132094 168.759272,58.2122703 L168.716995,58.5939575 L182.549737,58.5939575 C182.573382,58.2215566 182.585205,57.6753686 182.585205,56.9553934 C182.585205,54.2492801 182.100468,52.1948683 181.130994,50.7921582 C180.16152,49.389448 178.58908,48.6880929 176.413674,48.6880929 Z M7.28172525,23.304315 C9.28206518,23.304315 10.8798977,23.8300452 12.0752228,24.8815057 C13.2705479,25.9329662 13.8682104,27.2887968 13.8682104,28.9489976 C13.8682104,30.0557981 13.5327875,31.0906566 12.8619418,32.053573 C12.1910961,33.0164895 11.3007009,33.7801818 10.1907562,34.3446501 C9.08081147,34.9091183 7.89158498,35.1913525 6.62307673,35.1913525 C5.37896287,35.1913525 4.25682096,34.9478563 3.25665099,34.4608641 C2.25648102,33.9738719 1.46366337,33.2987236 0.87819802,32.4354192 C0.292732673,31.5721148 0,30.5981303 0,29.5134658 C0,28.4066653 0.341521452,27.3773409 1.02456436,26.4254924 C1.70760726,25.473644 2.61019967,24.7154856 3.73234158,24.1510174 C4.8544835,23.5865491 6.03761139,23.304315 7.28172525,23.304315 Z"></path>
    <path fill="#00E7C3" fill-rule="evenodd" d="M249.869634,52.4443968 L262.185595,65.0248448 L255.733533,71.6149566 L254.954087,72.3815529 C243.185567,84.0928785 239.833924,93.8192425 244.899159,101.560645 C234.96491,99.2802763 229.67588,93.889081 229.032069,85.3870589 C228.403407,77.0850845 234.829417,66.6030763 248.310101,53.9410344 L248.310101,53.9410344 L249.296897,53.0219087 L249.869634,52.4443968 Z M241.081641,9.23705556e-14 C237.449603,7.08965617 240.448524,14.8160736 250.078406,23.1792523 L250.078406,23.1792523 L265.600953,36.583 L273.881931,28.2335437 L274.238804,27.8686903 C282.836409,19.0052238 285.134031,11.2100512 281.131673,4.48317229 L281.131673,4.48317229 L281.577539,4.61797653 C291.161086,7.57409912 295.746502,12.8288927 295.333785,20.3823572 L295.333785,20.3823572 L295.310801,20.7374734 C294.742753,28.3374193 289.200982,37.4819807 278.685486,48.1711575 L278.908428,47.9438534 C292.674398,59.2224809 299.529477,68.9139568 299.474288,77.0182812 C299.414857,85.545173 294.436033,91.2976864 284.537143,94.2758214 C289.225188,86.0189927 284.872455,76.3170946 271.478942,65.1701269 L271.478942,65.1701269 L246.075573,42.9443125 C234.84422,33.0627936 228.756275,24.3699998 227.81174,16.865931 C226.852446,9.24461114 231.275746,3.62263413 241.081641,9.23705556e-14 Z"></path>
</svg>